<?xml version="1.0" encoding="utf-8" standalone="no"?>
<!DOCTYPE svg PUBLIC "-//W3C//DTD SVG 1.1//EN"
  "http://www.w3.org/Graphics/SVG/1.1/DTD/svg11.dtd">
<svg xmlns:xlink="http://www.w3.org/1999/xlink" width="642.299062pt" height="281.679141pt" viewBox="0 0 642.299062 281.679141" xmlns="http://www.w3.org/2000/svg" version="1.1">
 <metadata>
  <rdf:RDF xmlns:dc="http://purl.org/dc/elements/1.1/" xmlns:cc="http://creativecommons.org/ns#" xmlns:rdf="http://www.w3.org/1999/02/22-rdf-syntax-ns#">
   <cc:Work>
    <dc:type rdf:resource="http://purl.org/dc/dcmitype/StillImage"/>
    <dc:format>image/svg+xml</dc:format>
   </cc:Work>
  </rdf:RDF>
 </metadata>
 <defs>
  <style type="text/css">*{stroke-linejoin: round; stroke-linecap: butt}</style>
 </defs>
 <g id="figure_1">
  <g id="patch_1">
   <path d="M 0 281.679141 
L 642.299062 281.679141 
L 642.299062 0 
L 0 0 
z
" style="fill: #fcfcfb"/>
  </g>
  <g id="axes_1">
   <g id="patch_2">
    <path d="M 36.889063 253.258516 
L 642.299062 253.258516 
L 642.299062 13.218516 
L 36.889063 13.218516 
z
" style="fill: #fcfcfb"/>
   </g>
   <g id="FillBetweenPolyCollection_1">
    <defs>
     <path id="m1ff8cea59f" d="M 64.407699 -252.821875 
L 64.407699 -228.906792 
L 67.045827 -227.423211 
L 69.573311 -226.001852 
L 71.644478 -224.837109 
L 73.649664 -223.70947 
L 76.320902 -222.207269 
L 77.686379 -221.439378 
L 79.765156 -220.270355 
L 82.157262 -218.925127 
L 84.400361 -217.663695 
L 86.595678 -216.429134 
L 88.387654 -215.421396 
L 90.160357 -214.424497 
L 92.252436 -213.247993 
L 93.927444 -212.306034 
L 96.591471 -210.807889 
L 98.136318 -209.939127 
L 99.917355 -208.93754 
L 102.418953 -207.530739 
L 104.891074 -206.140514 
L 106.547608 -205.208944 
L 108.125226 -204.321753 
L 109.831968 -203.361947 
L 111.109454 -202.643539 
L 113.932056 -201.056217 
L 115.505433 -200.171411 
L 118.46372 -198.507785 
L 121.224648 -196.955147 
L 124.170723 -195.298388 
L 126.217895 -194.147139 
L 128.93411 -192.619645 
L 131.548471 -191.149429 
L 133.135169 -190.257132 
L 134.693095 -189.381015 
L 137.293374 -187.91872 
L 138.865717 -187.034495 
L 140.360238 -186.194034 
L 141.656821 -185.464886 
L 143.611701 -184.365538 
L 146.487286 -182.74842 
L 147.86798 -181.971972 
L 150.044992 -180.747705 
L 152.117422 -179.582251 
L 154.360395 -178.32089 
L 155.747974 -177.540569 
L 157.875045 -176.344387 
L 160.761473 -174.721172 
L 162.970893 -173.47868 
L 164.312444 -172.724244 
L 166.976427 -171.226124 
L 168.432233 -170.407435 
L 169.87951 -169.593542 
L 171.453411 -168.708441 
L 173.222203 -167.713741 
L 175.258304 -166.568717 
L 178.158889 -164.937541 
L 179.54102 -164.160284 
L 182.167413 -162.683303 
L 183.740434 -161.798697 
L 186.023656 -161.0283 
L 187.8058 -160.426975 
L 189.608012 -159.818878 
L 191.911466 -159.041655 
L 193.444415 -158.524412 
L 196.330358 -157.550647 
L 198.98181 -156.656002 
L 201.438026 -155.827234 
L 203.625884 -155.089014 
L 205.796004 -154.35678 
L 208.650538 -153.393612 
L 211.597599 -152.399225 
L 214.119699 -151.548226 
L 215.59048 -151.05196 
L 218.5436 -150.055528 
L 220.485507 -149.400296 
L 223.070382 -148.528116 
L 225.517921 -147.702276 
L 227.830869 -146.921848 
L 230.21725 -146.116643 
L 232.750018 -145.262045 
L 235.205932 -144.433379 
L 237.238678 -143.747496 
L 238.676229 -143.262443 
L 241.460684 -142.322921 
L 243.746466 -141.55166 
L 246.115267 -140.752387 
L 247.450693 -140.301792 
L 250.289711 -139.34386 
L 252.513487 -138.593521 
L 255.273186 -137.662353 
L 257.727525 -136.834217 
L 259.888632 -136.105024 
L 261.31147 -135.624934 
L 262.968783 -135.06573 
L 264.407036 -134.580439 
L 265.777025 -134.118182 
L 268.694772 -133.133685 
L 271.042652 -132.341471 
L 273.146107 -131.631731 
L 275.190686 -130.941856 
L 277.372107 -130.205808 
L 279.738067 -129.407493 
L 281.251284 -128.896908 
L 282.72304 -128.400313 
L 284.110366 -127.932207 
L 285.477074 -127.727251 
L 287.433691 -127.433831 
L 289.445839 -127.132083 
L 291.69202 -126.795239 
L 294.128011 -126.429931 
L 295.674971 -126.197944 
L 297.759673 -125.885316 
L 299.915435 -125.562032 
L 301.625025 -125.305656 
L 304.20023 -124.919471 
L 306.717287 -132.232862 
L 308.758827 -138.164623 
L 310.19276 -142.330962 
L 312.230176 -148.250743 
L 314.55517 -155.006089 
L 317.396307 -163.261104 
L 319.696536 -169.944494 
L 322.157859 -177.095949 
L 324.434866 -174.321531 
L 325.752007 -172.716662 
L 328.053925 -169.911892 
L 330.831545 -166.527503 
L 332.117927 -164.960112 
L 334.687167 -161.829623 
L 337.571181 -158.315599 
L 339.617464 -155.822307 
L 342.51172 -152.295803 
L 344.41324 -149.978898 
L 345.790493 -148.300785 
L 347.968399 -145.647118 
L 349.383247 -143.923197 
L 351.457186 -141.396208 
L 354.125399 -138.145125 
L 356.553412 -135.186716 
L 359.198169 -131.964214 
L 361.755024 -131.58078 
L 363.795284 -131.274817 
L 365.674981 -130.992931 
L 367.38839 -130.735984 
L 369.76475 -130.379618 
L 372.558012 -129.960732 
L 374.980908 -129.597387 
L 376.588661 -129.356284 
L 379.281674 -128.952431 
L 382.159496 -128.520865 
L 384.821391 -128.121679 
L 387.477554 -127.723353 
L 389.87822 -129.973422 
L 391.747881 -131.725797 
L 394.000219 -133.836842 
L 395.616947 -135.35215 
L 397.997171 -137.58306 
L 399.776901 -139.251145 
L 401.972254 -138.345785 
L 403.345308 -137.77954 
L 405.076746 -137.065499 
L 407.498715 -136.066683 
L 409.501785 -135.240621 
L 412.455582 -134.02248 
L 414.597863 -133.139007 
L 415.980198 -132.568935 
L 417.561899 -131.916644 
L 419.791132 -130.997313 
L 421.121071 -130.448848 
L 422.638685 -129.822987 
L 425.008115 -128.845838 
L 427.043451 -128.006469 
L 429.395235 -127.036598 
L 430.69965 -126.49866 
L 432.519391 -125.748202 
L 434.615263 -124.883868 
L 437.421479 -123.726589 
L 439.152426 -123.01275 
L 440.792831 -122.33625 
L 442.97584 -121.435981 
L 444.701907 -120.724154 
L 446.942762 -119.80003 
L 449.476146 -118.755267 
L 451.037478 -118.111376 
L 453.191097 -117.223228 
L 455.6834 -116.195407 
L 457.223593 -115.560234 
L 459.085437 -114.792413 
L 460.448264 -114.230385 
L 462.802705 -113.259418 
L 464.805929 -112.433292 
L 466.882621 -111.576868 
L 469.370384 -110.550919 
L 471.16238 -109.811903 
L 472.860926 -109.111426 
L 475.561289 -107.997801 
L 477.529447 -107.186136 
L 479.012878 -106.574373 
L 481.279552 -105.6396 
L 483.57031 -104.694896 
L 485.885586 -103.74008 
L 488.283733 -102.751089 
L 490.01545 -102.036932 
L 491.659875 -101.358774 
L 493.515272 -100.593612 
L 496.433623 -99.390089 
L 499.279678 -98.216381 
L 500.845832 -97.570502 
L 502.519584 -96.880249 
L 504.170475 -96.199425 
L 505.622119 -95.60077 
L 508.107175 -94.575937 
L 510.222165 -93.703719 
L 512.837481 -92.625168 
L 514.733078 -91.843427 
L 517.009463 -90.64862 
L 518.959742 -89.624976 
L 521.882844 -88.090726 
L 524.595691 -86.666833 
L 527.118546 -85.342661 
L 529.033089 -84.337774 
L 531.099404 -83.253227 
L 533.430975 -82.029454 
L 535.883906 -80.741983 
L 537.763369 -79.755508 
L 540.233421 -78.459051 
L 542.868401 -77.076028 
L 545.344814 -75.776233 
L 546.905174 -74.957246 
L 549.671011 -73.50554 
L 551.221639 -72.691661 
L 552.744524 -71.892343 
L 555.663035 -70.360503 
L 557.277229 -69.513261 
L 559.689032 -68.247377 
L 562.591053 -66.724192 
L 564.952036 -65.484982 
L 567.544139 -64.124463 
L 570.267188 -62.695216 
L 572.535576 -61.504606 
L 573.891698 -60.792818 
L 575.292197 -60.057737 
L 578.146157 -58.559778 
L 581.120944 -56.998401 
L 582.917031 -56.055688 
L 584.195246 -55.38479 
L 586.124228 -54.372325 
L 588.473323 -53.139354 
L 590.993279 -51.816704 
L 592.473782 -51.039632 
L 594.013626 -50.231413 
L 595.862671 -49.260904 
L 598.389571 -47.934609 
L 600.464483 -46.845549 
L 603.343607 -45.334382 
L 605.978522 -43.951393 
L 608.614833 -42.567671 
L 611.123834 -41.250771 
L 613.402444 -40.054796 
L 614.780426 -39.331534 
L 614.780426 -63.246617 
L 614.780426 -63.246617 
L 613.402444 -63.969879 
L 611.123834 -65.165854 
L 608.614833 -66.482754 
L 605.978522 -67.866476 
L 603.343607 -69.249465 
L 600.464483 -70.760632 
L 598.389571 -71.849692 
L 595.862671 -73.175987 
L 594.013626 -74.146496 
L 592.473782 -74.954714 
L 590.993279 -75.731786 
L 588.473323 -77.054437 
L 586.124228 -78.287407 
L 584.195246 -79.299873 
L 582.917031 -79.97077 
L 581.120944 -80.913483 
L 578.146157 -82.474861 
L 575.292197 -83.97282 
L 573.891698 -84.7079 
L 572.535576 -85.419689 
L 570.267188 -86.610298 
L 567.544139 -88.039546 
L 564.952036 -89.400065 
L 562.591053 -90.639275 
L 559.689032 -92.16246 
L 557.277229 -93.428343 
L 555.663035 -94.275586 
L 552.744524 -95.807426 
L 551.221639 -96.606744 
L 549.671011 -97.420622 
L 546.905174 -98.872328 
L 545.344814 -99.691315 
L 542.868401 -100.991111 
L 540.233421 -102.374134 
L 537.763369 -103.670591 
L 535.883906 -104.657066 
L 533.430975 -105.944537 
L 531.099404 -107.168309 
L 529.033089 -108.252857 
L 527.118546 -109.257744 
L 524.595691 -110.581916 
L 521.882844 -112.005809 
L 518.959742 -113.540059 
L 517.009463 -114.563703 
L 514.733078 -115.75851 
L 512.837481 -116.54025 
L 510.222165 -117.618802 
L 508.107175 -118.49102 
L 505.622119 -119.515852 
L 504.170475 -120.114508 
L 502.519584 -120.795332 
L 500.845832 -121.485584 
L 499.279678 -122.131464 
L 496.433623 -123.305172 
L 493.515272 -124.508694 
L 491.659875 -125.273857 
L 490.01545 -125.952015 
L 488.283733 -126.666171 
L 485.885586 -127.655163 
L 483.57031 -128.609979 
L 481.279552 -129.554683 
L 479.012878 -130.489455 
L 477.529447 -131.101219 
L 475.561289 -131.912884 
L 472.860926 -133.026509 
L 471.16238 -133.726986 
L 469.370384 -134.466002 
L 466.882621 -135.491951 
L 464.805929 -136.348375 
L 462.802705 -137.174501 
L 460.448264 -138.145468 
L 459.085437 -138.707495 
L 457.223593 -139.475316 
L 455.6834 -140.110489 
L 453.191097 -141.138311 
L 451.037478 -142.026459 
L 449.476146 -142.67035 
L 446.942762 -143.715113 
L 444.701907 -144.639237 
L 442.97584 -145.351064 
L 440.792831 -146.251333 
L 439.152426 -146.927833 
L 437.421479 -147.641672 
L 434.615263 -148.798951 
L 432.519391 -149.663285 
L 430.69965 -150.413743 
L 429.395235 -150.951681 
L 427.043451 -151.921552 
L 425.008115 -152.760921 
L 422.638685 -153.73807 
L 421.121071 -154.363931 
L 419.791132 -154.912395 
L 417.561899 -155.831727 
L 415.980198 -156.484018 
L 414.597863 -157.05409 
L 412.455582 -157.937563 
L 409.501785 -159.155703 
L 407.498715 -159.981766 
L 405.076746 -160.980581 
L 403.345308 -161.694623 
L 401.972254 -162.260868 
L 399.776901 -163.166228 
L 397.997171 -161.498143 
L 395.616947 -159.267233 
L 394.000219 -157.751925 
L 391.747881 -155.64088 
L 389.87822 -153.888505 
L 387.477554 -151.638436 
L 384.821391 -152.036762 
L 382.159496 -152.435947 
L 379.281674 -152.867514 
L 376.588661 -153.271366 
L 374.980908 -153.51247 
L 372.558012 -153.875814 
L 369.76475 -154.2947 
L 367.38839 -154.651066 
L 365.674981 -154.908014 
L 363.795284 -155.189899 
L 361.755024 -155.495863 
L 359.198169 -155.879296 
L 356.553412 -159.101799 
L 354.125399 -162.060208 
L 351.457186 -165.31129 
L 349.383247 -167.838279 
L 347.968399 -169.5622 
L 345.790493 -172.215868 
L 344.41324 -173.89398 
L 342.51172 -176.210886 
L 339.617464 -179.73739 
L 337.571181 -182.230682 
L 334.687167 -185.744706 
L 332.117927 -188.875195 
L 330.831545 -190.442586 
L 328.053925 -193.826975 
L 325.752007 -196.631745 
L 324.434866 -198.236614 
L 322.157859 -201.011031 
L 319.696536 -193.859576 
L 317.396307 -187.176187 
L 314.55517 -178.921171 
L 312.230176 -172.165825 
L 310.19276 -166.246045 
L 308.758827 -162.079706 
L 306.717287 -156.147944 
L 304.20023 -148.834554 
L 301.625025 -149.220739 
L 299.915435 -149.477114 
L 297.759673 -149.800399 
L 295.674971 -150.113027 
L 294.128011 -150.345014 
L 291.69202 -150.710322 
L 289.445839 -151.047166 
L 287.433691 -151.348914 
L 285.477074 -151.642334 
L 284.110366 -151.847289 
L 282.72304 -152.315396 
L 281.251284 -152.811991 
L 279.738067 -153.322576 
L 277.372107 -154.12089 
L 275.190686 -154.856938 
L 273.146107 -155.546813 
L 271.042652 -156.256554 
L 268.694772 -157.048768 
L 265.777025 -158.033265 
L 264.407036 -158.495522 
L 262.968783 -158.980812 
L 261.31147 -159.540017 
L 259.888632 -160.020107 
L 257.727525 -160.7493 
L 255.273186 -161.577435 
L 252.513487 -162.508604 
L 250.289711 -163.258943 
L 247.450693 -164.216875 
L 246.115267 -164.66747 
L 243.746466 -165.466743 
L 241.460684 -166.238004 
L 238.676229 -167.177526 
L 237.238678 -167.662579 
L 235.205932 -168.348462 
L 232.750018 -169.177128 
L 230.21725 -170.031726 
L 227.830869 -170.836931 
L 225.517921 -171.617358 
L 223.070382 -172.443199 
L 220.485507 -173.315379 
L 218.5436 -173.97061 
L 215.59048 -174.967042 
L 214.119699 -175.463309 
L 211.597599 -176.314307 
L 208.650538 -177.308695 
L 205.796004 -178.271862 
L 203.625884 -179.004097 
L 201.438026 -179.742317 
L 198.98181 -180.571085 
L 196.330358 -181.465729 
L 193.444415 -182.439495 
L 191.911466 -182.956737 
L 189.608012 -183.733961 
L 187.8058 -184.342057 
L 186.023656 -184.943383 
L 183.740434 -185.71378 
L 182.167413 -186.598386 
L 179.54102 -188.075367 
L 178.158889 -188.852624 
L 175.258304 -190.4838 
L 173.222203 -191.628824 
L 171.453411 -192.623524 
L 169.87951 -193.508625 
L 168.432233 -194.322518 
L 166.976427 -195.141206 
L 164.312444 -196.639327 
L 162.970893 -197.393763 
L 160.761473 -198.636255 
L 157.875045 -200.25947 
L 155.747974 -201.455652 
L 154.360395 -202.235973 
L 152.117422 -203.497334 
L 150.044992 -204.662787 
L 147.86798 -205.887054 
L 146.487286 -206.663503 
L 143.611701 -208.28062 
L 141.656821 -209.379969 
L 140.360238 -210.109117 
L 138.865717 -210.949578 
L 137.293374 -211.833802 
L 134.693095 -213.296098 
L 133.135169 -214.172215 
L 131.548471 -215.064512 
L 128.93411 -216.534727 
L 126.217895 -218.062221 
L 124.170723 -219.213471 
L 121.224648 -220.87023 
L 118.46372 -222.422868 
L 115.505433 -224.086494 
L 113.932056 -224.9713 
L 111.109454 -226.558621 
L 109.831968 -227.27703 
L 108.125226 -228.236836 
L 106.547608 -229.124026 
L 104.891074 -230.055597 
L 102.418953 -231.445822 
L 99.917355 -232.852623 
L 98.136318 -233.85421 
L 96.591471 -234.722971 
L 93.927444 -236.221117 
L 92.252436 -237.163076 
L 90.160357 -238.33958 
L 88.387654 -239.336479 
L 86.595678 -240.344217 
L 84.400361 -241.578778 
L 82.157262 -242.84021 
L 79.765156 -244.185437 
L 77.686379 -245.354461 
L 76.320902 -246.122352 
L 73.649664 -247.624552 
L 71.644478 -248.752191 
L 69.573311 -249.916935 
L 67.045827 -251.338294 
L 64.407699 -252.821875 
z
" style="stroke: #e2d7bd"/>
    </defs>
    <g clip-path="url(#pe957810ce6)">
     <use xlink:href="#m1ff8cea59f" x="0" y="281.679141" style="fill: #e2d7bd; stroke: #e2d7bd"/>
    </g>
   </g>
   <g id="matplotlib.axis_1">
    <g id="xtick_1">
     <g id="line2d_1">
      <path d="M 64.407699 253.258516 
L 64.407699 13.218516 
" clip-path="url(#pe957810ce6)" style="fill: none; stroke: #e1e0d9; stroke-opacity: 0.7; stroke-width: 0.6; stroke-linecap: square"/>
     </g>
     <g id="line2d_2">
      <defs>
       <path id="m3aca064c5a" d="M 0 0 
L 0 3.5 
" style="stroke: #898781; stroke-width: 0.8"/>
      </defs>
      <g>
       <use xlink:href="#m3aca064c5a" x="64.407699" y="253.258516" style="fill: #898781; stroke: #898781; stroke-width: 0.8"/>
      </g>
     </g>
     <g id="text_1">
      <text style="font-size: 9px; font-family: 'DejaVu Sans'; text-anchor: middle; fill: #898781" x="64.407699" y="267.097109" transform="rotate(-0 64.407699 267.097109)">0</text>
     </g>
    </g>
    <g id="xtick_2">
     <g id="line2d_3">
      <path d="M 170.723198 253.258516 
L 170.723198 13.218516 
" clip-path="url(#pe957810ce6)" style="fill: none; stroke: #e1e0d9; stroke-opacity: 0.7; stroke-width: 0.6; stroke-linecap: square"/>
     </g>
     <g id="line2d_4">
      <g>
       <use xlink:href="#m3aca064c5a" x="170.723198" y="253.258516" style="fill: #898781; stroke: #898781; stroke-width: 0.8"/>
      </g>
     </g>
     <g id="text_2">
      <text style="font-size: 9px; font-family: 'DejaVu Sans'; text-anchor: middle; fill: #898781" x="170.723198" y="267.097109" transform="rotate(-0 170.723198 267.097109)">5</text>
     </g>
    </g>
    <g id="xtick_3">
     <g id="line2d_5">
      <path d="M 277.038697 253.258516 
L 277.038697 13.218516 
" clip-path="url(#pe957810ce6)" style="fill: none; stroke: #e1e0d9; stroke-opacity: 0.7; stroke-width: 0.6; stroke-linecap: square"/>
     </g>
     <g id="line2d_6">
      <g>
       <use xlink:href="#m3aca064c5a" x="277.038697" y="253.258516" style="fill: #898781; stroke: #898781; stroke-width: 0.8"/>
      </g>
     </g>
     <g id="text_3">
      <text style="font-size: 9px; font-family: 'DejaVu Sans'; text-anchor: middle; fill: #898781" x="277.038697" y="267.097109" transform="rotate(-0 277.038697 267.097109)">10</text>
     </g>
    </g>
    <g id="xtick_4">
     <g id="line2d_7">
      <path d="M 383.354196 253.258516 
L 383.354196 13.218516 
" clip-path="url(#pe957810ce6)" style="fill: none; stroke: #e1e0d9; stroke-opacity: 0.7; stroke-width: 0.6; stroke-linecap: square"/>
     </g>
     <g id="line2d_8">
      <g>
       <use xlink:href="#m3aca064c5a" x="383.354196" y="253.258516" style="fill: #898781; stroke: #898781; stroke-width: 0.8"/>
      </g>
     </g>
     <g id="text_4">
      <text style="font-size: 9px; font-family: 'DejaVu Sans'; text-anchor: middle; fill: #898781" x="383.354196" y="267.097109" transform="rotate(-0 383.354196 267.097109)">15</text>
     </g>
    </g>
    <g id="xtick_5">
     <g id="line2d_9">
      <path d="M 489.669695 253.258516 
L 489.669695 13.218516 
" clip-path="url(#pe957810ce6)" style="fill: none; stroke: #e1e0d9; stroke-opacity: 0.7; stroke-width: 0.6; stroke-linecap: square"/>
     </g>
     <g id="line2d_10">
      <g>
       <use xlink:href="#m3aca064c5a" x="489.669695" y="253.258516" style="fill: #898781; stroke: #898781; stroke-width: 0.8"/>
      </g>
     </g>
     <g id="text_5">
      <text style="font-size: 9px; font-family: 'DejaVu Sans'; text-anchor: middle; fill: #898781" x="489.669695" y="267.097109" transform="rotate(-0 489.669695 267.097109)">20</text>
     </g>
    </g>
    <g id="xtick_6">
     <g id="line2d_11">
      <path d="M 595.985194 253.258516 
L 595.985194 13.218516 
" clip-path="url(#pe957810ce6)" style="fill: none; stroke: #e1e0d9; stroke-opacity: 0.7; stroke-width: 0.6; stroke-linecap: square"/>
     </g>
     <g id="line2d_12">
      <g>
       <use xlink:href="#m3aca064c5a" x="595.985194" y="253.258516" style="fill: #898781; stroke: #898781; stroke-width: 0.8"/>
      </g>
     </g>
     <g id="text_6">
      <text style="font-size: 9px; font-family: 'DejaVu Sans'; text-anchor: middle; fill: #898781" x="595.985194" y="267.097109" transform="rotate(-0 595.985194 267.097109)">25</text>
     </g>
    </g>
    <g id="text_7">
     <text style="font-size: 9px; font-family: 'DejaVu Sans'; text-anchor: middle; fill: #898781" x="339.594063" y="279.807422" transform="rotate(-0 339.594063 279.807422)">chainage along the trunk  (1000 ft)</text>
    </g>
   </g>
   <g id="matplotlib.axis_2">
    <g id="ytick_1">
     <g id="line2d_13">
      <path d="M 36.889063 220.177928 
L 642.299062 220.177928 
" clip-path="url(#pe957810ce6)" style="fill: none; stroke: #e1e0d9; stroke-opacity: 0.7; stroke-width: 0.6; stroke-linecap: square"/>
     </g>
     <g id="line2d_14">
      <defs>
       <path id="m9ef9035b3d" d="M 0 0 
L -3.5 0 
" style="stroke: #898781; stroke-width: 0.8"/>
      </defs>
      <g>
       <use xlink:href="#m9ef9035b3d" x="36.889063" y="220.177928" style="fill: #898781; stroke: #898781; stroke-width: 0.8"/>
      </g>
     </g>
     <g id="text_8">
      <text style="font-size: 9px; font-family: 'DejaVu Sans'; text-anchor: end; fill: #898781" x="29.889063" y="223.597225" transform="rotate(-0 29.889063 223.597225)">420</text>
     </g>
    </g>
    <g id="ytick_2">
     <g id="line2d_15">
      <path d="M 36.889063 180.319457 
L 642.299062 180.319457 
" clip-path="url(#pe957810ce6)" style="fill: none; stroke: #e1e0d9; stroke-opacity: 0.7; stroke-width: 0.6; stroke-linecap: square"/>
     </g>
     <g id="line2d_16">
      <g>
       <use xlink:href="#m9ef9035b3d" x="36.889063" y="180.319457" style="fill: #898781; stroke: #898781; stroke-width: 0.8"/>
      </g>
     </g>
     <g id="text_9">
      <text style="font-size: 9px; font-family: 'DejaVu Sans'; text-anchor: end; fill: #898781" x="29.889063" y="183.738754" transform="rotate(-0 29.889063 183.738754)">430</text>
     </g>
    </g>
    <g id="ytick_3">
     <g id="line2d_17">
      <path d="M 36.889063 140.460985 
L 642.299062 140.460985 
" clip-path="url(#pe957810ce6)" style="fill: none; stroke: #e1e0d9; stroke-opacity: 0.7; stroke-width: 0.6; stroke-linecap: square"/>
     </g>
     <g id="line2d_18">
      <g>
       <use xlink:href="#m9ef9035b3d" x="36.889063" y="140.460985" style="fill: #898781; stroke: #898781; stroke-width: 0.8"/>
      </g>
     </g>
     <g id="text_10">
      <text style="font-size: 9px; font-family: 'DejaVu Sans'; text-anchor: end; fill: #898781" x="29.889063" y="143.880282" transform="rotate(-0 29.889063 143.880282)">440</text>
     </g>
    </g>
    <g id="ytick_4">
     <g id="line2d_19">
      <path d="M 36.889063 100.602514 
L 642.299062 100.602514 
" clip-path="url(#pe957810ce6)" style="fill: none; stroke: #e1e0d9; stroke-opacity: 0.7; stroke-width: 0.6; stroke-linecap: square"/>
     </g>
     <g id="line2d_20">
      <g>
       <use xlink:href="#m9ef9035b3d" x="36.889063" y="100.602514" style="fill: #898781; stroke: #898781; stroke-width: 0.8"/>
      </g>
     </g>
     <g id="text_11">
      <text style="font-size: 9px; font-family: 'DejaVu Sans'; text-anchor: end; fill: #898781" x="29.889063" y="104.021811" transform="rotate(-0 29.889063 104.021811)">450</text>
     </g>
    </g>
    <g id="ytick_5">
     <g id="line2d_21">
      <path d="M 36.889063 60.744043 
L 642.299062 60.744043 
" clip-path="url(#pe957810ce6)" style="fill: none; stroke: #e1e0d9; stroke-opacity: 0.7; stroke-width: 0.6; stroke-linecap: square"/>
     </g>
     <g id="line2d_22">
      <g>
       <use xlink:href="#m9ef9035b3d" x="36.889063" y="60.744043" style="fill: #898781; stroke: #898781; stroke-width: 0.8"/>
      </g>
     </g>
     <g id="text_12">
      <text style="font-size: 9px; font-family: 'DejaVu Sans'; text-anchor: end; fill: #898781" x="29.889063" y="64.16334" transform="rotate(-0 29.889063 64.16334)">460</text>
     </g>
    </g>
    <g id="ytick_6">
     <g id="line2d_23">
      <path d="M 36.889063 20.885572 
L 642.299062 20.885572 
" clip-path="url(#pe957810ce6)" style="fill: none; stroke: #e1e0d9; stroke-opacity: 0.7; stroke-width: 0.6; stroke-linecap: square"/>
     </g>
     <g id="line2d_24">
      <g>
       <use xlink:href="#m9ef9035b3d" x="36.889063" y="20.885572" style="fill: #898781; stroke: #898781; stroke-width: 0.8"/>
      </g>
     </g>
     <g id="text_13">
      <text style="font-size: 9px; font-family: 'DejaVu Sans'; text-anchor: end; fill: #898781" x="29.889063" y="24.304869" transform="rotate(-0 29.889063 24.304869)">470</text>
     </g>
    </g>
    <g id="text_14">
     <text style="font-size: 9px; font-family: 'DejaVu Sans'; text-anchor: middle; fill: #898781" x="6.838594" y="133.238516" transform="rotate(-90 6.838594 133.238516)">head  (ft)</text>
    </g>
   </g>
   <g id="line2d_25">
    <path d="M 64.407699 28.857266 
L 183.740434 95.965361 
L 284.110366 129.831851 
L 304.20023 132.844587 
L 322.157859 80.668109 
L 359.198169 125.799844 
L 387.477554 130.040705 
L 399.776901 118.512913 
L 514.733078 165.920631 
L 614.780426 218.432524 
L 614.780426 218.432524 
" clip-path="url(#pe957810ce6)" style="fill: none; stroke: #0b0b0b; stroke-width: 1.2; stroke-linecap: square"/>
   </g>
   <g id="line2d_26">
    <path d="M 64.407699 26.864343 
L 183.740434 93.972437 
L 271.042652 123.429663 
L 273.146107 123.973327 
L 284.110366 127.672851 
L 304.20023 130.685586 
L 322.157859 78.509109 
L 359.198169 123.640844 
L 387.477554 127.881704 
L 399.776901 116.353912 
L 425.008115 126.759219 
L 427.043451 127.266434 
L 514.733078 163.429477 
L 614.780426 215.941369 
L 614.780426 215.941369 
" clip-path="url(#pe957810ce6)" style="fill: none; stroke-dasharray: 4,2; stroke-dashoffset: 0; stroke: #898781"/>
   </g>
   <g id="line2d_27">
    <path d="M 64.407699 24.129425 
L 71.644478 28.295297 
L 84.400361 35.464421 
L 109.831968 49.797438 
L 111.109454 50.443582 
L 115.505433 52.9306 
L 147.86798 71.127948 
L 150.044992 71.928937 
L 154.360395 72.035493 
L 196.330358 72.169416 
L 319.696536 72.747077 
L 322.157859 73.836714 
L 324.434866 78.368961 
L 325.752007 80.161303 
L 328.053925 82.904249 
L 330.831545 85.687214 
L 332.117927 87.741686 
L 339.617464 97.010046 
L 344.41324 102.855379 
L 349.383247 108.928906 
L 351.457186 110.539034 
L 354.125399 109.417284 
L 359.198169 109.211229 
L 372.558012 109.307445 
L 391.747881 109.488686 
L 395.616947 109.721867 
L 397.997171 110.080214 
L 399.776901 111.092123 
L 401.972254 112.657488 
L 405.076746 113.842246 
L 414.597863 117.789047 
L 417.561899 118.918095 
L 419.791132 119.884147 
L 425.008115 121.574191 
L 427.043451 121.910521 
L 429.395235 123.057206 
L 430.69965 123.47771 
L 442.97584 128.526312 
L 446.942762 130.1008 
L 449.476146 131.195302 
L 451.037478 131.729294 
L 459.085437 135.057443 
L 460.448264 135.524656 
L 464.805929 137.345461 
L 485.885586 145.899073 
L 490.01545 147.570507 
L 493.515272 148.922882 
L 500.845832 151.955085 
L 512.837481 156.903456 
L 514.733078 157.781807 
L 517.009463 159.261538 
L 518.959742 160.203628 
L 529.033089 165.47945 
L 542.868401 172.657454 
L 545.344814 173.990732 
L 546.905174 174.659744 
L 551.221639 177.012717 
L 552.744524 177.670902 
L 555.663035 179.333942 
L 557.277229 180.07618 
L 573.891698 188.774055 
L 575.292197 189.350135 
L 581.120944 192.530736 
L 582.917031 192.795543 
L 586.124228 192.898084 
L 592.473782 192.944185 
L 600.464483 193.015465 
L 614.780426 193.02775 
L 614.780426 193.02775 
" clip-path="url(#pe957810ce6)" style="fill: none; stroke: #2a78d6; stroke-width: 1.6; stroke-linecap: square"/>
   </g>
   <g id="line2d_28">
    <path d="M 64.407699 24.281838 
L 147.86798 71.125272 
L 150.044992 72.216369 
L 152.117422 73.039618 
L 154.360395 73.369866 
L 171.453411 73.430928 
L 230.21725 73.650607 
L 317.396307 74.101034 
L 319.696536 74.229241 
L 322.157859 75.867224 
L 345.790493 104.57267 
L 349.383247 108.573114 
L 351.457186 110.302082 
L 354.125399 109.717974 
L 359.198169 109.539531 
L 394.000219 110.003216 
L 395.616947 110.148939 
L 397.997171 110.601799 
L 399.776901 111.746051 
L 417.561899 118.911526 
L 422.638685 120.789015 
L 425.008115 121.544511 
L 427.043451 122.074246 
L 510.222165 156.012577 
L 514.733078 158.109623 
L 567.544139 185.467802 
L 575.292197 189.272894 
L 578.146157 190.550341 
L 581.120944 191.603121 
L 582.917031 192.024477 
L 584.195246 192.090161 
L 586.124228 192.036032 
L 588.473323 192.500083 
L 590.993279 191.91038 
L 592.473782 192.263375 
L 594.013626 192.49619 
L 595.862671 192.386473 
L 598.389571 192.068631 
L 600.464483 192.371998 
L 603.343607 192.288189 
L 605.978522 192.358496 
L 608.614833 191.9223 
L 611.123834 196.870916 
L 613.402444 84.572884 
L 614.780426 190.507524 
L 614.780426 190.507524 
" clip-path="url(#pe957810ce6)" style="fill: none; stroke: #eda100; stroke-width: 1.6; stroke-linecap: square"/>
   </g>
   <g id="line2d_29">
    <path d="M 64.407699 24.281838 
L 147.86798 71.123326 
L 150.044992 72.209557 
L 152.117422 73.015776 
L 154.360395 73.325224 
L 166.976427 73.404898 
L 317.396307 74.076098 
L 319.696536 74.206008 
L 322.157859 75.854938 
L 345.790493 104.551627 
L 349.383247 108.540271 
L 351.457186 110.258779 
L 354.125399 109.675158 
L 359.198169 109.497687 
L 394.000219 109.961616 
L 395.616947 110.109285 
L 397.997171 110.568348 
L 399.776901 111.719291 
L 415.980198 118.274628 
L 422.638685 120.760673 
L 425.008115 121.516291 
L 427.043451 122.048581 
L 510.222165 155.983505 
L 514.733078 158.090039 
L 573.891698 188.652295 
L 578.146157 190.615539 
L 581.120944 191.78862 
L 584.195246 192.59192 
L 586.124228 192.815005 
L 592.473782 192.905139 
L 614.780426 192.968269 
L 614.780426 192.968269 
" clip-path="url(#pe957810ce6)" style="fill: none; stroke: #e87ba4; stroke-width: 1.6; stroke-linecap: square"/>
   </g>
   <g id="patch_3">
    <path d="M 36.889063 253.258516 
L 36.889063 13.218516 
" style="fill: none; stroke: #e1e0d9; stroke-width: 0.8; stroke-linejoin: miter; stroke-linecap: square"/>
   </g>
   <g id="patch_4">
    <path d="M 36.889062 253.258516 
L 642.299062 253.258516 
" style="fill: none; stroke: #e1e0d9; stroke-width: 0.8; stroke-linejoin: miter; stroke-linecap: square"/>
   </g>
   <g id="text_15">
    <text style="font-size: 7.4px; font-family: 'DejaVu Sans'; fill: #898781" transform="translate(48.997263 227.625055)">370 virtual junctions chain 387 conduits into one continuous trunk: no manhole,</text>
    <text style="font-size: 7.4px; font-family: 'DejaVu Sans'; fill: #898781" transform="translate(48.997263 237.317147)">no storage, no head loss at a splice — the grade line runs through them.</text>
   </g>
   <g id="text_16">
    <text style="font-size: 9.5px; font-family: 'DejaVu Sans'; text-anchor: start" x="36.889063" y="7.218516" transform="rotate(-0 36.889063 7.218516)">The hydraulic grade line along the trunk, at the instant the solvers disagree most</text>
   </g>
   <g id="legend_1">
    <g id="line2d_30">
     <path d="M 340.401031 22.911359 
L 347.801031 22.911359 
L 355.201031 22.911359 
" style="fill: none; stroke: #0b0b0b; stroke-width: 1.2; stroke-linecap: square"/>
    </g>
    <g id="text_17">
     <text style="font-size: 7.4px; font-family: 'DejaVu Sans'; text-anchor: start" x="361.121031" y="25.501359" transform="rotate(-0 361.121031 25.501359)">invert</text>
    </g>
    <g id="line2d_31">
     <path d="M 340.401031 33.773172 
L 347.801031 33.773172 
L 355.201031 33.773172 
" style="fill: none; stroke-dasharray: 4,2; stroke-dashoffset: 0; stroke: #898781"/>
    </g>
    <g id="text_18">
     <text style="font-size: 7.4px; font-family: 'DejaVu Sans'; text-anchor: start" x="361.121031" y="36.363172" transform="rotate(-0 361.121031 36.363172)">crown</text>
    </g>
    <g id="line2d_32">
     <path d="M 340.401031 44.634984 
L 347.801031 44.634984 
L 355.201031 44.634984 
" style="fill: none; stroke: #2a78d6; stroke-width: 1.6; stroke-linecap: square"/>
    </g>
    <g id="text_19">
     <text style="font-size: 7.4px; font-family: 'DejaVu Sans'; text-anchor: start" x="361.121031" y="47.224984" transform="rotate(-0 361.121031 47.224984)">FV: finite volume</text>
    </g>
    <g id="line2d_33">
     <path d="M 438.109938 22.911359 
L 445.509937 22.911359 
L 452.909938 22.911359 
" style="fill: none; stroke: #eda100; stroke-width: 1.6; stroke-linecap: square"/>
    </g>
    <g id="text_20">
     <text style="font-size: 7.4px; font-family: 'DejaVu Sans'; text-anchor: start" x="458.829938" y="25.501359" transform="rotate(-0 458.829938 25.501359)">DW slot: dynamic wave, Preissmann slot</text>
    </g>
    <g id="line2d_34">
     <path d="M 438.109938 33.773172 
L 445.509937 33.773172 
L 452.909938 33.773172 
" style="fill: none; stroke: #e87ba4; stroke-width: 1.6; stroke-linecap: square"/>
    </g>
    <g id="text_21">
     <text style="font-size: 7.4px; font-family: 'DejaVu Sans'; text-anchor: start" x="458.829938" y="36.363172" transform="rotate(-0 458.829938 36.363172)">DW EXTRAN: dynamic wave, EXTRAN surcharge</text>
    </g>
   </g>
  </g>
 </g>
 <defs>
  <clipPath id="pe957810ce6">
   <rect x="36.889063" y="13.218516" width="605.41" height="240.04"/>
  </clipPath>
 </defs>
</svg>
