<?xml version="1.0" encoding="utf-8" standalone="no"?>
<!DOCTYPE svg PUBLIC "-//W3C//DTD SVG 1.1//EN"
  "http://www.w3.org/Graphics/SVG/1.1/DTD/svg11.dtd">
<svg xmlns:xlink="http://www.w3.org/1999/xlink" width="549.110627pt" height="289.798594pt" viewBox="0 0 549.110627 289.798594" xmlns="http://www.w3.org/2000/svg" version="1.1">
 <metadata>
  <rdf:RDF xmlns:dc="http://purl.org/dc/elements/1.1/" xmlns:cc="http://creativecommons.org/ns#" xmlns:rdf="http://www.w3.org/1999/02/22-rdf-syntax-ns#">
   <cc:Work>
    <dc:type rdf:resource="http://purl.org/dc/dcmitype/StillImage"/>
    <dc:format>image/svg+xml</dc:format>
   </cc:Work>
  </rdf:RDF>
 </metadata>
 <defs>
  <style type="text/css">*{stroke-linejoin: round; stroke-linecap: butt}</style>
 </defs>
 <g id="figure_1">
  <g id="patch_1">
   <path d="M 0 289.798594 
L 549.110627 289.798594 
L 549.110627 0 
L 0 0 
z
" style="fill: #fcfcfb"/>
  </g>
  <g id="axes_1">
   <g id="patch_2">
    <path d="M 19.504225 227.385073 
L 117.025352 227.385073 
L 117.025352 129.863946 
z
" clip-path="url(#p7197abbd1b)" style="fill: #01cc66; stroke: #898781; stroke-width: 0.8; stroke-linejoin: miter"/>
   </g>
   <g id="patch_3">
    <path d="M 19.504225 227.385073 
L 117.025352 129.863946 
L 19.504225 129.863946 
z
" clip-path="url(#p7197abbd1b)" style="fill: #99eb85; stroke: #898781; stroke-width: 0.8; stroke-linejoin: miter"/>
   </g>
   <g id="patch_4">
    <path d="M 117.025352 227.385073 
L 214.546479 227.385073 
L 214.546479 129.863946 
z
" clip-path="url(#p7197abbd1b)" style="fill: #01cc66; stroke: #898781; stroke-width: 0.8; stroke-linejoin: miter"/>
   </g>
   <g id="patch_5">
    <path d="M 117.025352 227.385073 
L 214.546479 129.863946 
L 117.025352 129.863946 
z
" clip-path="url(#p7197abbd1b)" style="fill: #99eb85; stroke: #898781; stroke-width: 0.8; stroke-linejoin: miter"/>
   </g>
   <g id="patch_6">
    <path d="M 19.504225 129.863946 
L 117.025352 129.863946 
L 117.025352 32.342819 
z
" clip-path="url(#p7197abbd1b)" style="fill: #987b61; stroke: #898781; stroke-width: 0.8; stroke-linejoin: miter"/>
   </g>
   <g id="patch_7">
    <path d="M 19.504225 129.863946 
L 117.025352 32.342819 
L 19.504225 32.342819 
z
" clip-path="url(#p7197abbd1b)" style="fill: #b39e99; stroke: #898781; stroke-width: 0.8; stroke-linejoin: miter"/>
   </g>
   <g id="patch_8">
    <path d="M 117.025352 129.863946 
L 214.546479 129.863946 
L 214.546479 32.342819 
z
" clip-path="url(#p7197abbd1b)" style="fill: #987b61; stroke: #898781; stroke-width: 0.8; stroke-linejoin: miter"/>
   </g>
   <g id="patch_9">
    <path d="M 117.025352 129.863946 
L 214.546479 32.342819 
L 117.025352 32.342819 
z
" clip-path="url(#p7197abbd1b)" style="fill: #b39e99; stroke: #898781; stroke-width: 0.8; stroke-linejoin: miter"/>
   </g>
   <g id="line2d_1"/>
   <g id="text_1">
    <text style="font-size: 6.6px; font-family: 'DejaVu Sans'; text-anchor: middle; fill: #0b0b0b; opacity: 0.6" x="84.51831" y="196.699218" transform="rotate(-0 84.51831 196.699218)">0</text>
   </g>
   <g id="text_2">
    <text style="font-size: 6.6px; font-family: 'DejaVu Sans'; text-anchor: middle; fill: #0b0b0b; opacity: 0.6" x="52.011268" y="164.192176" transform="rotate(-0 52.011268 164.192176)">1</text>
   </g>
   <g id="text_3">
    <text style="font-size: 6.6px; font-family: 'DejaVu Sans'; text-anchor: middle; fill: #0b0b0b; opacity: 0.6" x="182.039437" y="196.699218" transform="rotate(-0 182.039437 196.699218)">2</text>
   </g>
   <g id="text_4">
    <text style="font-size: 6.6px; font-family: 'DejaVu Sans'; text-anchor: middle; fill: #0b0b0b; opacity: 0.6" x="149.532394" y="164.192176" transform="rotate(-0 149.532394 164.192176)">3</text>
   </g>
   <g id="text_5">
    <text style="font-size: 6.6px; font-family: 'DejaVu Sans'; text-anchor: middle; fill: #0b0b0b; opacity: 0.6" x="84.51831" y="99.178091" transform="rotate(-0 84.51831 99.178091)">4</text>
   </g>
   <g id="text_6">
    <text style="font-size: 6.6px; font-family: 'DejaVu Sans'; text-anchor: middle; fill: #0b0b0b; opacity: 0.6" x="52.011268" y="66.671049" transform="rotate(-0 52.011268 66.671049)">5</text>
   </g>
   <g id="text_7">
    <text style="font-size: 6.6px; font-family: 'DejaVu Sans'; text-anchor: middle; fill: #0b0b0b; opacity: 0.6" x="182.039437" y="99.178091" transform="rotate(-0 182.039437 99.178091)">6</text>
   </g>
   <g id="text_8">
    <text style="font-size: 6.6px; font-family: 'DejaVu Sans'; text-anchor: middle; fill: #0b0b0b; opacity: 0.6" x="149.532394" y="66.671049" transform="rotate(-0 149.532394 66.671049)">7</text>
   </g>
   <g id="text_9">
    <text style="font-size: 7.2px; font-family: 'DejaVu Sans'; text-anchor: start; fill: #898781" x="19.504225" y="242.988453" transform="rotate(-0 19.504225 242.988453)">100.17 to 100.83 m</text>
   </g>
   <g id="text_10">
    <text style="font-size: 9px; font-family: 'DejaVu Sans'; text-anchor: start" x="0" y="6.838594" transform="rotate(-0 0 6.838594)">(a) The mesh: bed elevation, boundaries and coupling points</text>
   </g>
   <g id="line2d_2">
    <path d="M 19.504225 227.385073 
L 117.025352 227.385073 
" clip-path="url(#p7197abbd1b)" style="fill: none; stroke: #1baf7a; stroke-width: 3.2; stroke-linecap: round"/>
   </g>
   <g id="line2d_3">
    <path d="M 117.025352 227.385073 
L 214.546479 227.385073 
" clip-path="url(#p7197abbd1b)" style="fill: none; stroke: #1baf7a; stroke-width: 3.2; stroke-linecap: round"/>
   </g>
   <g id="line2d_4">
    <path d="M 214.546479 227.385073 
L 214.546479 129.863946 
" clip-path="url(#p7197abbd1b)" style="fill: none; stroke: #2a78d6; stroke-width: 3.2; stroke-linecap: round"/>
   </g>
   <g id="line2d_5">
    <path d="M 214.546479 129.863946 
L 214.546479 32.342819 
" clip-path="url(#p7197abbd1b)" style="fill: none; stroke: #6f42c1; stroke-width: 3.2; stroke-linecap: round"/>
   </g>
   <g id="line2d_6">
    <path d="M 214.546479 32.342819 
L 117.025352 32.342819 
" clip-path="url(#p7197abbd1b)" style="fill: none; stroke: #eb6834; stroke-width: 3.2; stroke-linecap: round"/>
   </g>
   <g id="line2d_7">
    <path d="M 117.025352 32.342819 
L 19.504225 32.342819 
" clip-path="url(#p7197abbd1b)" style="fill: none; stroke: #eda100; stroke-width: 3.2; stroke-linecap: round"/>
   </g>
   <g id="legend_1">
    <g id="line2d_8">
     <path d="M 5.94 251.113313 
L 10.56 251.113313 
L 15.18 251.113313 
" style="fill: none; stroke: #1baf7a; stroke-width: 3.2; stroke-linecap: round"/>
    </g>
    <g id="text_11">
     <text style="font-size: 6.6px; font-family: 'DejaVu Sans'; text-anchor: start" x="20.46" y="253.423313" transform="rotate(-0 20.46 253.423313)">normal flow</text>
    </g>
    <g id="line2d_9">
     <path d="M 5.94 260.800875 
L 10.56 260.800875 
L 15.18 260.800875 
" style="fill: none; stroke: #2a78d6; stroke-width: 3.2; stroke-linecap: round"/>
    </g>
    <g id="text_12">
     <text style="font-size: 6.6px; font-family: 'DejaVu Sans'; text-anchor: start" x="20.46" y="263.110875" transform="rotate(-0 20.46 263.110875)">ts stage</text>
    </g>
    <g id="line2d_10">
     <path d="M 5.94 270.488438 
L 10.56 270.488438 
L 15.18 270.488438 
" style="fill: none; stroke: #6f42c1; stroke-width: 3.2; stroke-linecap: round"/>
    </g>
    <g id="text_13">
     <text style="font-size: 6.6px; font-family: 'DejaVu Sans'; text-anchor: start" x="20.46" y="272.798438" transform="rotate(-0 20.46 272.798438)">rating curve</text>
    </g>
    <g id="line2d_11">
     <path d="M 5.94 280.176 
L 10.56 280.176 
L 15.18 280.176 
" style="fill: none; stroke: #eb6834; stroke-width: 3.2; stroke-linecap: round"/>
    </g>
    <g id="text_14">
     <text style="font-size: 6.6px; font-family: 'DejaVu Sans'; text-anchor: start" x="20.46" y="282.486" transform="rotate(-0 20.46 282.486)">specified flow</text>
    </g>
    <g id="line2d_12">
     <path d="M 72.310219 251.113313 
L 76.930219 251.113313 
L 81.550219 251.113313 
" style="fill: none; stroke: #eda100; stroke-width: 3.2; stroke-linecap: round"/>
    </g>
    <g id="text_15">
     <text style="font-size: 6.6px; font-family: 'DejaVu Sans'; text-anchor: start" x="86.830219" y="253.423313" transform="rotate(-0 86.830219 253.423313)">specified stage</text>
    </g>
    <g id="line2d_13">
     <path d="M 72.310219 260.800875 
L 76.930219 260.800875 
L 81.550219 260.800875 
" style="fill: none; stroke: #1f77b4; stroke-width: 1.5; stroke-linecap: square"/>
     <defs>
      <path id="m6607265ca5" d="M 0 5 
C 1.326016 5 2.597899 4.473168 3.535534 3.535534 
C 4.473168 2.597899 5 1.326016 5 0 
C 5 -1.326016 4.473168 -2.597899 3.535534 -3.535534 
C 2.597899 -4.473168 1.326016 -5 0 -5 
C -1.326016 -5 -2.597899 -4.473168 -3.535534 -3.535534 
C -4.473168 -2.597899 -5 -1.326016 -5 0 
C -5 1.326016 -4.473168 2.597899 -3.535534 3.535534 
C -2.597899 4.473168 -1.326016 5 0 5 
z
" style="stroke: #e8484c; stroke-width: 2"/>
     </defs>
     <g>
      <use xlink:href="#m6607265ca5" x="76.930219" y="260.800875" style="fill-opacity: 0; stroke: #e8484c; stroke-width: 2"/>
     </g>
    </g>
    <g id="text_16">
     <text style="font-size: 6.6px; font-family: 'DejaVu Sans'; text-anchor: start" x="86.830219" y="263.110875" transform="rotate(-0 86.830219 263.110875)">vertex coupled to a node</text>
    </g>
    <g id="line2d_14">
     <path d="M 72.310219 270.488438 
L 76.930219 270.488438 
L 81.550219 270.488438 
" style="fill: none"/>
     <defs>
      <path id="m7baefc10c7" d="M -4 4 
L 4 4 
L 4 -4 
L -4 -4 
z
" style="stroke: #e8484c; stroke-width: 2; stroke-linejoin: miter"/>
     </defs>
     <g>
      <use xlink:href="#m7baefc10c7" x="76.930219" y="270.488438" style="fill-opacity: 0; stroke: #e8484c; stroke-width: 2; stroke-linejoin: miter"/>
     </g>
    </g>
    <g id="text_17">
     <text style="font-size: 6.6px; font-family: 'DejaVu Sans'; text-anchor: start" x="86.830219" y="272.798438" transform="rotate(-0 86.830219 272.798438)">cells tagged vault coupled to ST1</text>
    </g>
   </g>
   <g id="line2d_15">
    <path d="M 117.025352 129.863946 
" clip-path="url(#p7197abbd1b)" style="fill: none; stroke: #1f77b4; stroke-width: 1.5; stroke-linecap: square"/>
    <g clip-path="url(#p7197abbd1b)">
     <use xlink:href="#m6607265ca5" x="117.025352" y="129.863946" style="fill-opacity: 0; stroke: #e8484c; stroke-width: 2"/>
    </g>
   </g>
   <g id="text_18">
    <text style="font-size: 7px; font-family: 'DejaVu Sans'; text-anchor: middle; fill: #e8484c" x="117.025352" y="151.318594" transform="rotate(-0 117.025352 151.318594)">vertex 4 → J1</text>
   </g>
  </g>
  <g id="axes_2">
   <g id="patch_10">
    <path d="M 334.564149 227.385073 
L 432.085275 227.385073 
L 432.085275 129.863946 
z
" clip-path="url(#pfe526430ff)" style="fill: #3c8cc3; stroke: #898781; stroke-width: 0.8; stroke-linejoin: miter"/>
   </g>
   <g id="patch_11">
    <path d="M 334.564149 227.385073 
L 432.085275 129.863946 
L 334.564149 129.863946 
z
" clip-path="url(#pfe526430ff)" style="fill: #3787c0; stroke: #898781; stroke-width: 0.8; stroke-linejoin: miter"/>
   </g>
   <g id="patch_12">
    <path d="M 432.085275 227.385073 
L 529.606402 227.385073 
L 529.606402 129.863946 
z
" clip-path="url(#pfe526430ff)" style="fill: #3484bf; stroke: #898781; stroke-width: 0.8; stroke-linejoin: miter"/>
   </g>
   <g id="patch_13">
    <path d="M 432.085275 227.385073 
L 529.606402 129.863946 
L 432.085275 129.863946 
z
" clip-path="url(#pfe526430ff)" style="fill: #68acd5; stroke: #898781; stroke-width: 0.8; stroke-linejoin: miter"/>
   </g>
   <g id="patch_14">
    <path d="M 334.564149 129.863946 
L 432.085275 129.863946 
L 432.085275 32.342819 
z
" clip-path="url(#pfe526430ff)" style="fill: #2d7dbb; stroke: #898781; stroke-width: 0.8; stroke-linejoin: miter"/>
   </g>
   <g id="patch_15">
    <path d="M 334.564149 129.863946 
L 432.085275 32.342819 
L 334.564149 32.342819 
z
" clip-path="url(#pfe526430ff)" style="fill: #0d57a1; stroke: #898781; stroke-width: 0.8; stroke-linejoin: miter"/>
   </g>
   <g id="patch_16">
    <path d="M 432.085275 129.863946 
L 529.606402 129.863946 
L 529.606402 32.342819 
z
" clip-path="url(#pfe526430ff)" style="fill: #c6dbef; stroke: #898781; stroke-width: 0.8; stroke-linejoin: miter"/>
   </g>
   <g id="patch_17">
    <path d="M 432.085275 129.863946 
L 529.606402 32.342819 
L 432.085275 32.342819 
z
" clip-path="url(#pfe526430ff)" style="fill: #84bcdb; stroke: #898781; stroke-width: 0.8; stroke-linejoin: miter"/>
   </g>
   <g id="text_19">
    <text style="font-size: 6.6px; font-family: 'DejaVu Sans'; text-anchor: middle; fill: #0b0b0b; opacity: 0.6" x="399.578233" y="196.699218" transform="rotate(-0 399.578233 196.699218)">0</text>
   </g>
   <g id="text_20">
    <text style="font-size: 6.6px; font-family: 'DejaVu Sans'; text-anchor: middle; fill: #0b0b0b; opacity: 0.6" x="367.071191" y="164.192176" transform="rotate(-0 367.071191 164.192176)">1</text>
   </g>
   <g id="text_21">
    <text style="font-size: 6.6px; font-family: 'DejaVu Sans'; text-anchor: middle; fill: #0b0b0b; opacity: 0.6" x="497.09936" y="196.699218" transform="rotate(-0 497.09936 196.699218)">2</text>
   </g>
   <g id="text_22">
    <text style="font-size: 6.6px; font-family: 'DejaVu Sans'; text-anchor: middle; fill: #0b0b0b; opacity: 0.6" x="464.592318" y="164.192176" transform="rotate(-0 464.592318 164.192176)">3</text>
   </g>
   <g id="text_23">
    <text style="font-size: 6.6px; font-family: 'DejaVu Sans'; text-anchor: middle; fill: #0b0b0b; opacity: 0.6" x="399.578233" y="99.178091" transform="rotate(-0 399.578233 99.178091)">4</text>
   </g>
   <g id="text_24">
    <text style="font-size: 6.6px; font-family: 'DejaVu Sans'; text-anchor: middle; fill: #0b0b0b; opacity: 0.6" x="367.071191" y="66.671049" transform="rotate(-0 367.071191 66.671049)">5</text>
   </g>
   <g id="text_25">
    <text style="font-size: 6.6px; font-family: 'DejaVu Sans'; text-anchor: middle; fill: #0b0b0b; opacity: 0.6" x="497.09936" y="99.178091" transform="rotate(-0 497.09936 99.178091)">6</text>
   </g>
   <g id="text_26">
    <text style="font-size: 6.6px; font-family: 'DejaVu Sans'; text-anchor: middle; fill: #0b0b0b; opacity: 0.6" x="464.592318" y="66.671049" transform="rotate(-0 464.592318 66.671049)">7</text>
   </g>
   <g id="text_27">
    <text style="font-size: 7.2px; font-family: 'DejaVu Sans'; text-anchor: start; fill: #898781" x="334.564149" y="242.988453" transform="rotate(-0 334.564149 242.988453)">0.00 to 0.67 m</text>
   </g>
   <g id="text_28">
    <text style="font-size: 7px; font-family: 'DejaVu Sans'; text-anchor: start; fill: #898781" x="334.564149" y="250.790143" transform="rotate(-0 334.564149 250.790143)">cell numbers are the triangle indices the deck uses</text>
   </g>
   <g id="text_29">
    <text style="font-size: 9px; font-family: 'DejaVu Sans'; text-anchor: start" x="315.059923" y="6.838594" transform="rotate(-0 315.059923 6.838594)">(b) The maximum depth each cell reached</text>
   </g>
  </g>
 </g>
 <defs>
  <clipPath id="p7197abbd1b">
   <rect x="0" y="12.838594" width="234.050704" height="276.96"/>
  </clipPath>
  <clipPath id="pfe526430ff">
   <rect x="315.059923" y="12.838594" width="234.050704" height="276.96"/>
  </clipPath>
 </defs>
</svg>
